<svg id="Layer_5" enable-background="new 0 0 64 64" height="512" viewBox="0 0 64 64" width="512" xmlns="http://www.w3.org/2000/svg" xmlns:xlink="http://www.w3.org/1999/xlink"><linearGradient id="SVGID_1_" gradientUnits="userSpaceOnUse" x1="32" x2="32" y1="63" y2="1"><stop offset="0" stop-color="#9f2fff"/><stop offset="1" stop-color="#0bb1d3"/></linearGradient><path d="m29.158 28.937-.081-1.998c.642-.026 1.3-.063 1.966-.11l.144 1.994c-.688.049-1.367.087-2.029.114zm6.084-.562-.303-1.977c-.643.099-1.292.182-1.94.252l.217 1.988c.677-.074 1.355-.16 2.026-.263zm4.034-.86-.552-1.922c-.588.169-1.218.323-1.871.461l.411 1.957c.7-.147 1.377-.314 2.012-.496zm-2.423 14.596.411 1.957c.708-.148 1.385-.315 2.012-.495l-.552-1.922c-.58.166-1.209.322-1.871.46zm-3.853.598.217 1.988c.677-.074 1.355-.161 2.026-.264l-.303-1.977c-.643.1-1.292.183-1.94.253zm14-41.709h16v22h-7v5.142c1.72.447 3 1.999 3 3.858s-1.28 3.411-3 3.858v5.142h7v22h-16v-22h7v-5.142c-1.399-.364-2.494-1.459-2.858-2.858h-8.142v11c0 3.417-8.256 4.488-12 4.798v2.979l-2.802.713c-.119.318-.252.639-.4.956l1.48 2.489-5.342 5.342-2.489-1.479c-.317.147-.637.281-.956.4l-.714 2.802h-7.555l-.713-2.802c-.319-.119-.639-.253-.956-.4l-2.489 1.479-5.342-5.342 1.48-2.489c-.147-.317-.281-.638-.4-.956l-2.802-.713v-7.555l2.802-.713c.119-.318.252-.639.4-.956l-1.48-2.489 5.342-5.342.936.557v-15.279c0-3.955 11.12-5 17-5s17 1.045 17 5v11h8.142c.364-1.399 1.459-2.494 2.858-2.858v-5.142h-7zm-36 19c0 .871 5.256 3 15 3s15-2.129 15-3-5.256-3-15-3-15 2.129-15 3zm0 8c0 .871 5.256 3 15 3s15-2.129 15-3v-5.459c-3.471 1.888-10.66 2.459-15 2.459s-11.529-.571-15-2.459zm18 17.777-2.354-.598-.169-.528c-.179-.56-.415-1.126-.704-1.686l-.254-.492 1.246-2.095-3.143-3.143-2.096 1.246-.493-.256c-.558-.288-1.124-.525-1.683-.704l-.528-.168-.599-2.353h-4.445l-.599 2.354-.528.168c-.559.179-1.125.416-1.683.704l-.493.256-2.096-1.246-3.143 3.143 1.246 2.095-.254.492c-.289.56-.525 1.126-.704 1.686l-.17.528-2.354.597v4.445l2.354.598.169.528c.179.56.415 1.126.704 1.686l.254.492-1.246 2.095 3.143 3.143 2.096-1.246.493.256c.558.288 1.124.525 1.683.704l.528.168.599 2.354h4.445l.599-2.354.528-.168c.559-.179 1.125-.416 1.683-.704l.493-.256 2.096 1.246 3.143-3.143-1.246-2.095.254-.492c.289-.56.525-1.126.704-1.686l.169-.528 2.355-.597zm12-1.777v-5.379c-2.665 1.541-7.604 2.392-12.397 2.578l-.806 1.355c.147.317.281.638.4.956l2.803.713v2.566c7.003-.586 10-2.204 10-2.789zm0-8v-5.459c-3.471 1.888-10.66 2.459-15 2.459s-11.529-.571-15-2.459v5.474c.17-.072.339-.15.51-.214l.713-2.801h7.555l.713 2.802c.319.119.639.253.956.4l2.489-1.479 4.481 4.481c8.297-.299 12.583-2.364 12.583-3.204zm20 7h-12v18h12zm-6-13c-1.103 0-2 .897-2 2s.897 2 2 2 2-.897 2-2-.897-2-2-2zm-6-9h12v-18h-12zm-24 27c0 4.963-4.038 9-9 9s-9-4.037-9-9 4.038-9 9-9 9 4.037 9 9zm-2 0c0-3.859-3.14-7-7-7s-7 3.141-7 7 3.14 7 7 7 7-3.141 7-7zm-2 0c0 2.757-2.243 5-5 5s-5-2.243-5-5 2.243-5 5-5 5 2.243 5 5zm-2 0c0-1.654-1.346-3-3-3s-3 1.346-3 3 1.346 3 3 3 3-1.346 3-3zm40-3h-8v2h8zm0 14h-8v-6h8zm-2-4h-4v2h4zm-6-48h8v-2h-8zm0 4h8v-2h-8zm0 4h8v-2h-8zm0 4h8v-2h-8zm8 30h-8v2h8zm-42-30h-2v2h2zm8 0h-2v2h2zm-4 0h-2v2h2zm12 0h-2v2h2zm4 0h-2v2h2zm-8 0h-2v2h2z" fill="url(#SVGID_1_)"/></svg>